<?xml version="1.0"?>
<svg xmlns="http://www.w3.org/2000/svg" xmlns:xlink="http://www.w3.org/1999/xlink" xmlns:svgjs="http://svgjs.com/svgjs" version="1.1" width="512" height="512" x="0" y="0" viewBox="0 0 480 480" style="enable-background:new 0 0 512 512" xml:space="preserve"><g>
<g xmlns="http://www.w3.org/2000/svg">
	<g>
		<g>
			<path d="M240,0C142.798,0,64,78.798,64,176c0,94.576,162.896,292.712,169.832,301.096c1.52,1.839,3.782,2.904,6.168,2.904     c2.386,0,4.648-1.065,6.168-2.904C253.104,468.712,416,270.576,416,176C416,78.798,337.202,0,240,0z M240,459.288     C209.896,421.712,80,254.976,80,176c0.101-88.324,71.677-159.899,160-160c88.324,0.101,159.899,71.676,160,160     C400,254.96,270.104,421.704,240,459.288z" fill="#626262" data-original="#000000" style=""/>
			<path d="M348.88,145.664l-104-80c-2.877-2.214-6.883-2.214-9.76,0l-104,80c-3.499,2.697-4.149,7.721-1.452,11.22     c1.514,1.964,3.852,3.115,6.332,3.116h24v88c0,4.418,3.582,8,8,8h144c4.418,0,8-3.582,8-8v-88h24     c4.418-0.002,7.998-3.586,7.996-8.004C351.995,149.516,350.844,147.178,348.88,145.664z M256,240h-32v-48h32V240z M312,144     c-4.418,0-8,3.582-8,8v88h-32v-56c0-4.418-3.582-8-8-8h-48c-4.418,0-8,3.582-8,8v56h-32v-88c0-4.418-3.582-8-8-8h-8.48     L240,82.096L320.48,144H312z" fill="#626262" data-original="#000000" style=""/>
		</g>
	</g>
</g>
<g xmlns="http://www.w3.org/2000/svg">
</g>
<g xmlns="http://www.w3.org/2000/svg">
</g>
<g xmlns="http://www.w3.org/2000/svg">
</g>
<g xmlns="http://www.w3.org/2000/svg">
</g>
<g xmlns="http://www.w3.org/2000/svg">
</g>
<g xmlns="http://www.w3.org/2000/svg">
</g>
<g xmlns="http://www.w3.org/2000/svg">
</g>
<g xmlns="http://www.w3.org/2000/svg">
</g>
<g xmlns="http://www.w3.org/2000/svg">
</g>
<g xmlns="http://www.w3.org/2000/svg">
</g>
<g xmlns="http://www.w3.org/2000/svg">
</g>
<g xmlns="http://www.w3.org/2000/svg">
</g>
<g xmlns="http://www.w3.org/2000/svg">
</g>
<g xmlns="http://www.w3.org/2000/svg">
</g>
<g xmlns="http://www.w3.org/2000/svg">
</g>
</g></svg>
