<?xml version="1.0"?>
<svg xmlns="http://www.w3.org/2000/svg" xmlns:xlink="http://www.w3.org/1999/xlink" xmlns:svgjs="http://svgjs.com/svgjs" version="1.1" width="512" height="512" x="0" y="0" viewBox="0 0 512 512" style="enable-background:new 0 0 512 512" xml:space="preserve"><g><path xmlns="http://www.w3.org/2000/svg" d="m63.789062 0h384.421876c17.550781 0 33.5 7.171875 45.058593 18.730469 11.558594 11.558593 18.730469 27.507812 18.730469 45.058593v173.132813c0 17.550781-7.175781 33.5-18.730469 45.058594-11.554687 11.554687-27.507812 18.730469-45.058593 18.730469h-152.210938v-.023438c-5.523438 0-10-4.476562-10-10s4.476562-10 10-10v-.023438h152.210938c12.015624 0 22.953124-4.925781 30.886718-12.855468 7.933594-7.9375 12.855469-18.871094 12.855469-30.886719v-151.082031h-195.953125v-.019532c-5.523438 0-10-4.480468-10-10.003906 0-5.519531 4.476562-10 10-10v-.019531h195.953125v-2.007813c0-12.019531-4.925781-22.953124-12.855469-30.886718-7.933594-7.933594-18.867187-12.855469-30.886718-12.855469h-384.421876c-12.019531 0-22.953124 4.925781-30.886718 12.855469-7.933594 7.933594-12.855469 18.867187-12.855469 30.886718v2.007813h195.953125v.019531c5.523438 0 10 4.480469 10 10 0 5.523438-4.476562 10.003906-10 10.003906v.019532h-195.953125v151.082031c0 12.015625 4.925781 22.949219 12.855469 30.886719 7.933594 7.929687 18.867187 12.855468 30.886718 12.855468h152.210938v.023438c5.523438 0 10 4.476562 10 10s-4.476562 10-10 10v.023438h-152.210938c-17.550781 0-33.503906-7.175782-45.058593-18.730469-11.558594-11.558594-18.730469-27.507813-18.730469-45.058594v-173.132813c0-17.550781 7.171875-33.5 18.730469-45.058593 11.554687-11.558594 27.507812-18.730469 45.058593-18.730469zm192.210938 65.816406c-5.523438 0-10 4.480469-10 10 0 5.523438 4.476562 10.003906 10 10.003906s10-4.480468 10-10.003906c0-5.519531-4.476562-10-10-10zm0 214.871094c-5.523438 0-10 4.476562-10 10s4.476562 10 10 10 10-4.476562 10-10-4.476562-10-10-10zm-134.828125-56.441406 17.523437-24.125 17.527344 24.125c3.242188 4.476562 9.5 5.476562 13.976563 2.230468 4.476562-3.242187 5.476562-9.5 2.230469-13.976562l-17.542969-24.148438 28.371093-9.21875c5.253907-1.707031 8.128907-7.351562 6.421876-12.605468-1.707032-5.253906-7.351563-8.128906-12.605469-6.421875l-28.355469 9.214843v-29.832031c0-5.535156-4.488281-10.019531-10.023438-10.019531-5.535156 0-10.023437 4.484375-10.023437 10.019531v29.832031l-28.355469-9.214843c-5.253906-1.707031-10.894531 1.167969-12.605468 6.421875-1.707032 5.253906 1.167968 10.898437 6.421874 12.605468l28.371094 9.21875-17.542968 24.148438c-3.242188 4.476562-2.242188 10.734375 2.230468 13.976562 4.476563 3.242188 10.738282 2.242188 13.980469-2.230468zm234.605469 0 17.523437-24.125 17.527344 24.125c3.242187 4.476562 9.5 5.476562 13.976563 2.230468 4.476562-3.242187 5.476562-9.5 2.230468-13.976562l-17.542968-24.148438 28.371093-9.21875c5.257813-1.707031 8.132813-7.351562 6.421875-12.605468-1.707031-5.253906-7.351562-8.128906-12.605468-6.421875l-28.355469 9.214843v-29.832031c0-5.535156-4.484375-10.019531-10.019531-10.019531-5.535157 0-10.023438 4.484375-10.023438 10.019531v29.832031l-28.355469-9.214843c-5.253906-1.707031-10.898437 1.167969-12.605469 6.421875-1.710937 5.253906 1.164063 10.898437 6.417969 12.605468l28.375 9.21875-17.542969 24.148438c-3.246093 4.476562-2.246093 10.734375 2.230469 13.976562 4.472657 3.242188 10.730469 2.242188 13.976563-2.230468zm-117.304688 0 17.527344-24.125 17.523438 24.125c3.246093 4.476562 9.503906 5.476562 13.980468 2.230468 4.476563-3.242187 5.476563-9.5 2.230469-13.976562l-17.542969-24.148438 28.371094-9.21875c5.257812-1.707031 8.132812-7.351562 6.421875-12.605468-1.707031-5.253906-7.351563-8.128906-12.605469-6.421875l-28.355468 9.214843v-29.832031c0-5.535156-4.488282-10.019531-10.023438-10.019531s-10.023438 4.484375-10.023438 10.019531v29.832031l-28.355468-9.214843c-5.253906-1.707031-10.894532 1.167969-12.605469 6.421875-1.707031 5.253906 1.167969 10.898437 6.421875 12.605468l28.375 9.21875-17.546875 24.148438c-3.242187 4.476562-2.242187 10.734375 2.230469 13.976562 4.476562 3.242188 10.734375 2.242188 13.976562-2.230468zm0 0" fill-rule="evenodd" fill="#626262" data-original="#000000" style=""/></g></svg>
